<svg xmlns="http://www.w3.org/2000/svg" xmlns:xlink="http://www.w3.org/1999/xlink" xmlns:v="http://vecta.io" width="3001" height="3001" viewBox="-0.5 -0.5 3001 3001"><style><![CDATA[svg {stroke:#000;stroke-linecap:round;stroke-linejoin:round;fill:#fff;fill-rule:evenodd;font-family:Roboto;font-size:14px;text-anchor:middle}svg text {stroke:none}]]></style><defs><linearGradient id="L100100000c7ff57100d8ff8a.grad" x1="100%" y1="100%" x2="0%" y2="0%"><stop offset="0%" stop-color="#c7ff57"/><stop offset="100%" stop-color="#d8ff8a"/></linearGradient><linearGradient id="L1001000008fff57100b1ff8a.grad" x1="100%" y1="100%" x2="0%" y2="0%"><stop offset="0%" stop-color="#8fff57"/><stop offset="100%" stop-color="#b1ff8a"/></linearGradient><linearGradient id="L100100000ffe357100ffeb8a.grad" x1="100%" y1="100%" x2="0%" y2="0%"><stop offset="0%" stop-color="#ffe357"/><stop offset="100%" stop-color="#ffeb8a"/></linearGradient><linearGradient id="L10010000057ffff1008affff.grad" x1="100%" y1="100%" x2="0%" y2="0%"><stop offset="0%" stop-color="#57ffff"/><stop offset="100%" stop-color="#8affff"/></linearGradient><linearGradient id="L100100000ff7357100ff9d8a.grad" x1="100%" y1="100%" x2="0%" y2="0%"><stop offset="0%" stop-color="#ff7357"/><stop offset="100%" stop-color="#ff9d8a"/></linearGradient><linearGradient id="L100100000ffab57100ffc48a.grad" x1="100%" y1="100%" x2="0%" y2="0%"><stop offset="0%" stop-color="#ffab57"/><stop offset="100%" stop-color="#ffc48a"/></linearGradient><linearGradient id="L10010000057c7ff1008ad8ff.grad" x1="100%" y1="100%" x2="0%" y2="0%"><stop offset="0%" stop-color="#57c7ff"/><stop offset="100%" stop-color="#8ad8ff"/></linearGradient><g id="thick.end"><path d="M 0 0 L 4 5 L -4 5 z" stroke="none"/></g><g id="thin.end"><path d="M 0 0 L 3 10 L -3 10 z" stroke="none"/></g></defs><g transform="translate(50 1855)"><rect fill="url(#L100100000c7ff57100d8ff8a.grad)" height="155" stroke="none" width="570" x="0" y="0"/><g><text fill="#000" fill-opacity="1"><tspan x="285" y="142.2">Connected React Component</tspan></text></g></g><g transform="translate(350 1895)"><rect fill="url(#L1001000008fff57100b1ff8a.grad)" height="70" stroke="#65cd76" stroke-width="2px" width="255" x="0" y="0"/><g><text fill="#000" fill-opacity="1"><tspan x="127.5" y="40.6">React Component</tspan></text></g></g><g transform="translate(45 100)"><rect height="445" stroke-width="3px" width="155" x="0" y="0"/><g><text fill="#000" fill-opacity="1"><tspan x="77.5" y="228.1">Shipments Page</tspan></text></g></g><g transform="translate(255 100)"><rect height="55" stroke-width="2px" width="160" x="0" y="0"/><g><text fill="#000" fill-opacity="1"><tspan x="80" y="33.1">New Shipment</tspan></text></g></g><g transform="translate(200 127.5)"><path d="M 1e-13 1e-13 L 47.5 0" fill="none" stroke-width="3px"/><use class="EndArrow.cls" fill="#000000" transform="scale(1.5) rotate(90 36.6667 0)" x="36.6667" xlink:href="#thick.end" y="0"/></g><g transform="translate(255 225)"><rect height="50" stroke-width="2px" width="160" x="0" y="0"/><g><text fill="#000" fill-opacity="1"><tspan x="80" y="30.6">New Quote</tspan></text></g></g><g transform="translate(200 250)"><path d="M 1e-13 1e-13 L 47.5 0" fill="none" stroke-width="3px"/><use class="EndArrow.cls" fill="#000000" transform="scale(1.5) rotate(90 36.6667 0)" x="36.6667" xlink:href="#thick.end" y="0"/></g><g transform="translate(625 85)"><rect fill="#ccf2ff" height="120" rx="8" width="385" x="0" y="0"/><g><text fill="#000" fill-opacity="1"><tspan x="192.5" y="107.2">Click Get Rates Button</tspan></text></g></g><g transform="translate(415 127.5)"><path d="M 1e-13 1e-13 L 28.75 0" fill="none" stroke-width="2px"/><use class="EndArrow.cls" fill="#000000" transform="scale(1.25) rotate(90 28 0)" x="28" xlink:href="#thick.end" y="0"/></g><g transform="translate(835 100)"><g><rect fill="#eeccff" height="70" width="150" x="0" y="0"/><g><text fill="#000" fill-opacity="1"><tspan x="75" y="40.6">Get Rates</tspan></text></g></g><g transform="translate(20 0)"><path d="M 1e-13 1e-13 L 0 70" fill="#eeccff"/></g><g transform="translate(130 0)"><path d="M 1e-13 1e-13 L 0 70" fill="#eeccff"/></g></g><g transform="translate(645 100)"><g><rect fill="#eeccff" height="70" width="150" x="0" y="0"/><g><text fill="#000" fill-opacity="1"><tspan x="75" y="32.2">Save Order</tspan><tspan x="75" y="49">API REQUEST</tspan></text></g></g><g transform="translate(20 0)"><path d="M 1e-13 1e-13 L 0 70" fill="#eeccff"/></g><g transform="translate(130 0)"><path d="M 1e-13 1e-13 L 0 70" fill="#eeccff"/></g></g><g transform="translate(450 85)"><path d="M 0 22.8571 L 0 80 L 150 80 L 150 0 Z" fill="#ddffcc"/><g transform="translate(0 11.6667)"><text fill="#000" fill-opacity="1" text-anchor="start"><tspan x="10" y="38.0333">Fill out </tspan><tspan x="10" y="54.8333">Shipment Form</tspan></text></g></g><g transform="translate(1045 90)"><path d="M 115 70 C 134.39 70 150 54.39 150 35 C 150 15.61 134.39 0 115 0 L 30 0 L 0 35 L 30 70 Z" fill="#ccffee"/><g><text fill="#000" fill-opacity="1"><tspan x="75" y="40.6">Display Rates</tspan></text></g></g><g transform="translate(1235 90)"><path d="M 0 20 L 0 70 L 150 70 L 150 0 Z" fill="#ddffcc"/><g transform="translate(0 10.2083)"><text fill="#000" fill-opacity="1"><tspan x="75" y="41.3292">User Select Rate</tspan></text></g></g><g transform="translate(1010 125)"><path d="M 1e-13 1e-13 L 28.75 0" fill="none" stroke-width="2px"/><use class="EndArrow.cls" fill="#000000" transform="scale(1.25) rotate(90 28 0)" x="28" xlink:href="#thick.end" y="0"/></g><g transform="translate(1195 125)"><path d="M 1e-13 1e-13 L 35 0" fill="none"/><use class="EndArrow.cls" fill="#000000" transform="scale(1) rotate(90 40 0)" x="40" xlink:href="#thick.end" y="0"/></g><g transform="translate(1040 190)"><rect fill="#ccffff" height="80" width="180" x="0" y="0"/><g><text fill="#000" fill-opacity="1"><tspan x="90" y="37.2">Changes any Shipment </tspan><tspan x="90" y="54">information</tspan></text></g></g><g transform="translate(50 1150)"><rect fill="#e0e0e0" height="450" width="650" x="0" y="0"/><g><text fill="#000" fill-opacity="1"><tspan x="325" y="24">App.js</tspan></text></g></g><g transform="translate(65 1185)"><rect fill="#ffcd99" height="60" width="620" x="0" y="0"/><g><text fill="#000" fill-opacity="1"><tspan x="310" y="35.6">Header.js</tspan></text></g></g><g transform="translate(65 1255)"><rect fill="#ffcccc" height="330" width="160" x="0" y="0"/><g><text fill="#000" fill-opacity="1"><tspan x="80" y="170.6">Navigation.js</tspan></text></g></g><g transform="translate(235 1255)"><rect fill="#f2ffcc" height="330" width="450" x="0" y="0"/><g><text fill="#000" fill-opacity="1"><tspan x="225" y="24">Pages/</tspan></text></g></g><g transform="translate(600 125)"><path d="M 1e-13 1e-13 L 18.75 0" fill="none" stroke-width="2px"/><use class="EndArrow.cls" fill="#000000" transform="scale(1.25) rotate(90 20 0)" x="20" xlink:href="#thick.end" y="0"/></g><g transform="translate(1120 160)"><path d="M 1e-13 1e-13 L 0 25" fill="none"/><use class="EndArrow.cls" fill="#000000" transform="scale(1) rotate(180 0 30)" x="0" xlink:href="#thick.end" y="30"/></g><g transform="translate(817.5 205)"><path d="M 222.5 25 L 0 25 L 0 10" fill="none"/><use class="EndArrow.cls" fill="#000000" transform="scale(1) rotate(360 0 0)" x="0" xlink:href="#thin.end" y="0"/></g><g transform="translate(1240 195)"><rect fill="#ccffff" height="50" width="150" x="0" y="0"/><g><text fill="#000" fill-opacity="1"><tspan x="75" y="22.2">Click Continue </tspan><tspan x="75" y="39">Button</tspan></text></g></g><g transform="translate(1312.5 160)"><path d="M 1e-13 1e-13 L 0 30" fill="none"/><use class="EndArrow.cls" fill="#000000" transform="scale(1) rotate(180 0 35)" x="0" xlink:href="#thick.end" y="35"/></g><g transform="translate(1240 285)"><path d="M 115 70 C 134.39 70 150 54.39 150 35 C 150 15.61 134.39 0 115 0 L 30 0 L 0 35 L 30 70 Z" fill="#ccffee"/><g><text fill="#000" fill-opacity="1"><tspan x="75" y="32.2">Display Confirm </tspan><tspan x="75" y="49">Page</tspan></text></g></g><g transform="translate(1315 245)"><path d="M 1e-13 1e-13 L 0 35" fill="none"/><use class="EndArrow.cls" fill="#000000" transform="scale(1) rotate(180 0 40)" x="0" xlink:href="#thick.end" y="40"/></g><g transform="translate(70 1855)"><rect fill="url(#L100100000ffe357100ffeb8a.grad)" height="65" stroke="none" width="170" x="0" y="0"/><g><text fill="#000" fill-opacity="1"><tspan x="85" y="52.2">Action Creators</tspan></text></g></g><g transform="translate(50 1650)"><rect fill="url(#L10010000057ffff1008affff.grad)" height="205" stroke="none" width="570" x="0" y="0"/><g><text fill="#000" fill-opacity="1"><tspan x="285" y="24">Redux Store</tspan></text></g></g><g transform="translate(70 1820)"><rect fill="url(#L100100000ff7357100ff9d8a.grad)" height="60" stroke="none" width="170" x="0" y="0"/><g><text fill="#000" fill-opacity="1"><tspan x="85" y="35.6">mapDispatchToProps</tspan></text></g></g><g transform="translate(430 1815)"><rect fill="url(#L100100000ffab57100ffc48a.grad)" height="60" stroke="none" width="170" x="0" y="0"/><g><text fill="#000" fill-opacity="1"><tspan x="85" y="35.6">mapStateToProps</tspan></text></g></g><g transform="translate(450 1695)"><g><ellipse cx="75" cy="10" fill="#ccccff" rx="75" ry="10"/></g><g transform="translate(0 10)"><path d="M 150 60 C 150 65.54 116.55 70 75 70 C 33.45 70 0 65.54 0 60 L 0 0 C 0 5.54 33.45 10 75 10 C 116.55 10 150 5.54 150 0 Z" fill="#ccccff"/><g><text fill="#000" fill-opacity="1"><tspan x="75" y="40.6">Redux State Obj</tspan></text></g></g><g transform="translate(0 15)"><path d="M 150 0 C 150 5.54 116.55 10 75 10 C 33.45 10 0 5.54 0 0" fill="none" stroke="#000000" stroke-opacity="1" stroke-width="1px"/></g><g transform="translate(0 20)"><path d="M 150 0 C 150 5.54 116.55 10 75 10 C 33.45 10 0 5.54 0 0" fill="none" stroke="#000000" stroke-opacity="1" stroke-width="1px"/></g></g><g transform="translate(525 1775)"><path d="M 1e-13 1e-13 L 0 35" fill="none"/><use class="EndArrow.cls" fill="#000000" transform="scale(1) rotate(180 0 40)" x="0" xlink:href="#thick.end" y="40"/></g><g transform="translate(260 1695)"><g transform="translate(10 0)"><path d="M 0 0 L 140 0 L 140 65.071 C 70 40.0437 70 90.0983 0 60.0655 Z" fill="#cceeff"/></g><g transform="translate(5 5)"><path d="M 0 0 L 140 0 L 140 65.071 C 70 40.0437 70 90.0983 0 60.0655 Z" fill="#cceeff"/></g><g transform="translate(0 10)"><path d="M 0 0 L 140 0 L 140 65.071 C 70 40.0437 70 90.0983 0 60.0655 Z" fill="#cceeff"/><g><text fill="#000" fill-opacity="1"><tspan x="70" y="40.6">Reducers</tspan></text></g></g></g><g transform="translate(410 1735)"><path d="M 1e-13 1e-13 L 35 0" fill="none"/><use class="EndArrow.cls" fill="#000000" transform="scale(1) rotate(90 40 0)" x="40" xlink:href="#thick.end" y="0"/></g><g transform="translate(75 1700)"><g transform="translate(10 0)"><path d="M 0 0 L 140 0 L 140 65.071 C 70 40.0437 70 90.0983 0 60.0655 Z" fill="#cceeff"/></g><g transform="translate(5 5)"><path d="M 0 0 L 140 0 L 140 65.071 C 70 40.0437 70 90.0983 0 60.0655 Z" fill="#cceeff"/></g><g transform="translate(0 10)"><path d="M 0 0 L 140 0 L 140 65.071 C 70 40.0437 70 90.0983 0 60.0655 Z" fill="#cceeff"/><g><text fill="#000" fill-opacity="1"><tspan x="70" y="40.6">Middlewares</tspan></text></g></g></g><g transform="translate(225 1737.5)"><path d="M 1e-13 1e-13 L 30 0" fill="none"/><use class="EndArrow.cls" fill="#000000" transform="scale(1) rotate(90 35 0)" x="35" xlink:href="#thick.end" y="0"/></g><g transform="translate(515 1875)"><path d="M 1e-13 1e-13 L 0 15" fill="none"/><use class="EndArrow.cls" fill="#000000" transform="scale(1) rotate(180 0 20)" x="0" xlink:href="#thick.end" y="20"/></g><g transform="translate(240 1907.5)"><path d="M 110 0 L 5 0" fill="none"/><use class="EndArrow.cls" fill="#000000" transform="scale(1) rotate(270 0 0)" x="0" xlink:href="#thick.end" y="0"/><g transform="translate(0 -30)"><text fill="#000" fill-opacity="1"><tspan x="47.5" y="20.6">Dispatch</tspan></text></g></g><g transform="translate(150 1772.8409)"><path d="M 0 47.1591 L 0 5" fill="none"/><use class="EndArrow.cls" fill="#000000" transform="scale(1) rotate(360 0 0)" x="0" xlink:href="#thick.end" y="0"/></g><g transform="translate(340 1340)"><rect fill="url(#L10010000057c7ff1008ad8ff.grad)" height="220" stroke="#4f4f4f" width="235" x="0" y="0"/><g><text fill="#000" fill-opacity="1"><tspan x="117.5" y="24">Containers/</tspan></text></g></g><g transform="translate(360 1375)"><rect fill="url(#L10010000057ffff1008affff.grad)" height="50" stroke="#4f4f4f" width="200" x="0" y="0"/><g><text fill="#000" fill-opacity="1"><tspan x="100" y="30.6">Components/</tspan></text></g></g><g transform="translate(360 1435)"><rect fill="url(#L10010000057ffff1008affff.grad)" height="50" stroke="#4f4f4f" width="200" x="0" y="0"/><g><text fill="#000" fill-opacity="1"><tspan x="100" y="30.6">Components/</tspan></text></g></g><g transform="translate(360 1495)"><rect fill="url(#L10010000057ffff1008affff.grad)" height="50" stroke="#4f4f4f" width="200" x="0" y="0"/><g><text fill="#000" fill-opacity="1"><tspan x="100" y="30.6">Components/</tspan></text></g></g></svg>